<svg xmlns="http://www.w3.org/2000/svg" viewBox="0 0 64 64" fill="none">
  <defs>
    <linearGradient id="badge-light" x1="20" y1="10" x2="44" y2="54" gradientUnits="userSpaceOnUse">
      <stop offset="0" stop-color="#2563EB" />
      <stop offset="1" stop-color="#1D4ED8" />
    </linearGradient>
    <linearGradient id="badge-dark" x1="20" y1="10" x2="44" y2="54" gradientUnits="userSpaceOnUse">
      <stop offset="0" stop-color="#1E3A8A" />
      <stop offset="1" stop-color="#1E40AF" />
    </linearGradient>
  </defs>
  <circle class="badge" cx="32" cy="32" r="26" />
  <path
    class="marker"
    d="M32 18c-7.18 0-13 5.82-13 13 0 10.29 10.91 16.9 12.31 17.65.43.23.94.23 1.37 0C34.09 47.9 45 41.29 45 31c0-7.18-5.82-13-13-13Zm0 19a6 6 0 1 1 0-12 6 6 0 0 1 0 12Z"
  />
  <path
    class="orbit"
    d="M19.5 33c1.75-7.5 7.87-13 12.5-13s10.75 5.5 12.5 13"
    stroke-width="1.8"
    stroke-linecap="round"
  />
  <path
    class="orbit orbit--meridian"
    d="M32 20c3 4 5 8.5 5 12s-2 8-5 12"
    stroke-width="1.8"
    stroke-linecap="round"
  />
  <path
    class="beam"
    d="M24.5 40.5c2 2.7 4.7 4.7 7.5 5.5 2.8-.8 5.5-2.8 7.5-5.5"
    stroke-width="2"
    stroke-linecap="round"
    fill="none"
  />
  <circle class="alert" cx="44" cy="19" r="5.2" stroke-width="1.6" />
  <style>
    .badge { fill: url(#badge-light); }
    .marker { fill: #F8FBFF; }
    .orbit, .beam { stroke: #DBEAFE; }
    .alert { fill: #F97316; stroke: #F8FBFF; }
    @media (prefers-color-scheme: dark) {
      .badge { fill: url(#badge-dark); }
      .marker { fill: #0F172A; }
      .orbit, .beam { stroke: #60A5FA; }
      .alert { fill: #FACC15; stroke: #0F172A; }
    }
  </style>
</svg>
